Coordinates
version=1
nRows=7
nColumns=40
inDegrees=yes

Units are S.I. units (second, meters, Newtons, ...)
Angles are in degrees.

endheader
time	pelvis_tilt	pelvis_list	pelvis_rotation	pelvis_tx	pelvis_ty	pelvis_tz	hip_flexion_r	hip_adduction_r	hip_rotation_r	knee_angle_r	knee_angle_r_beta	ankle_angle_r	subtalar_angle_r	mtp_angle_r	hip_flexion_l	hip_adduction_l	hip_rotation_l	knee_angle_l	knee_angle_l_beta	ankle_angle_l	subtalar_angle_l	mtp_angle_l	lumbar_extension	lumbar_bending	lumbar_rotation	arm_flex_r	arm_add_r	arm_rot_r	elbow_flex_r	pro_sup_r	wrist_flex_r	wrist_dev_r	arm_flex_l	arm_add_l	arm_rot_l	elbow_flex_l	pro_sup_l	wrist_flex_l	wrist_dev_l
     47.63000000	     -3.01387139	     -4.83775480	      3.06278566	      0.96475050	      0.93408436	      0.50457588	     11.63872383	      3.25026863	    -18.72413051	     15.00528714	     15.00528714	      9.59947794	      5.87300378	     -4.75373310	     25.20669562	    -14.27985187	     -5.28163963	     48.36164032	     48.36164032	     16.49321371	    -19.11200238	     18.45291259	    -10.55832177	      9.46734976	      3.75477174	     21.02843062	    -15.63740732	     -7.97797712	     34.43272794	     44.64946087	      0.00000000	      0.00000000	      7.40929816	     -8.54906623	     -0.61358407	     46.54293427	     44.84909592	      0.00000000	      0.00000000
     47.64321429	     -3.10277639	     -4.70209919	      3.29245852	      0.96347599	      0.93416855	      0.50475150	     11.21411639	      3.20231493	    -18.64171782	     14.77355431	     14.77355431	      9.88328025	      5.60130655	     -4.79053871	     26.21048099	    -14.01636962	     -5.25971096	     46.03848198	     46.03848198	     16.50582881	    -19.05867780	     18.30845384	    -10.54074348	      9.30347587	      3.39837143	     23.26418225	    -15.48257032	     -7.84593652	     36.00613139	     44.61550617	      0.00000000	      0.00000000	      5.72811454	     -8.48368570	     -0.37994758	     44.56414985	     44.82083309	      0.00000000	      0.00000000
     47.65642857	     -3.19650992	     -4.62763458	      3.50334574	      0.96223123	      0.93412238	      0.50489113	     10.78385116	      3.21709860	    -18.59206245	     14.50884527	     14.50884527	     10.11469055	      5.40783491	     -5.07417311	     27.00237533	    -13.75762766	     -5.24147814	     43.35182745	     43.35182745	     15.96868418	    -18.99533948	     16.92161559	    -10.47964918	      9.23284483	      3.59852598	     24.83434823	    -15.95430891	     -6.80307373	     38.40784647	     44.55385158	      0.00000000	      0.00000000	      5.30372763	     -7.90363038	     -0.32869152	     40.04358442	     44.88882625	      0.00000000	      0.00000000
     47.66964286	     -3.28600145	     -4.46033242	      3.71634415	      0.96093547	      0.93414566	      0.50491255	     10.36921817	      3.10977203	    -18.58498654	     14.29095006	     14.29095006	     10.33897709	      5.26046851	     -5.14936263	     27.64797478	    -13.25688633	     -5.05383823	     40.51905655	     40.51905655	     15.67875679	    -18.88104160	     17.01145467	    -10.50549144	      9.00809550	      3.44490405	     26.91098363	    -15.87713574	     -6.70626039	     40.00562461	     44.51507460	      0.00000000	      0.00000000	      3.71288588	     -7.80279766	     -0.16563225	     38.36500638	     44.86211486	      0.00000000	      0.00000000
     47.68285714	     -3.45087108	     -4.49795985	      3.88717204	      0.95955837	      0.93380106	      0.50488814	     10.11676480	      3.19075241	    -18.62865152	     14.18410599	     14.18410599	     10.60714189	      5.15928241	     -5.27391585	     28.39722530	    -12.94009826	     -4.75669948	     37.81016713	     37.81016713	     15.46555917	    -18.47472727	     17.12177598	    -10.42600482	      9.05952247	      3.70833408	     28.87539314	    -16.23858591	     -6.70621188	     41.24057670	     44.48827376	      0.00000000	      0.00000000	      2.26971137	     -7.52249600	     -0.03020810	     37.08183036	     44.83227706	      0.00000000	      0.00000000
     47.69607143	     -3.47145630	     -4.37980609	      4.09851198	      0.95840840	      0.93376137	      0.50459833	      9.55100408	      3.11727200	    -18.78797975	     13.82175752	     13.82175752	     10.71904407	      5.34510699	     -5.82706507	     28.63032796	    -12.34341758	     -4.39059700	     34.63396716	     34.63396716	     14.09553243	    -18.31088559	     14.57707535	    -10.49326164	      8.94775804	      3.81585745	     29.72041170	    -16.76956852	     -5.07167499	     45.54943729	     44.34246109	      0.00000000	      0.00000000	      2.73025054	     -6.96312068	     -0.04830718	     30.60601903	     44.93722064	      0.00000000	      0.00000000
     47.70928571	     -3.56256435	     -4.30064540	      4.24108204	      0.95713713	      0.93361224	      0.50434272	      9.13421424	      3.08969475	    -18.77822028	     13.57788174	     13.57788174	     10.99174189	      5.30326317	     -5.91603226	     29.02610501	    -11.78103004	     -3.92679036	     31.83416296	     31.83416296	     13.70841541	    -17.60309371	     14.75467749	    -10.54673504	      8.82164069	      3.65698574	     31.56908535	    -16.62276561	     -5.07549530	     47.19729123	     44.30701546	      0.00000000	      0.00000000	      1.23429584	     -6.97553170	     -0.02495030	     29.46454890	     44.92449454	      0.00000000	      0.00000000
